<?xml version="1.0" standalone="no"?><!DOCTYPE svg PUBLIC "-//W3C//DTD SVG 1.1//EN" "http://www.w3.org/Graphics/SVG/1.1/DTD/svg11.dtd"><svg t="1548842267319" class="icon" style="" viewBox="0 0 1024 1024" version="1.1" xmlns="http://www.w3.org/2000/svg" p-id="3739" xmlns:xlink="http://www.w3.org/1999/xlink" width="200" height="200"><defs><style type="text/css"></style></defs><path d="M512 843.776c-235.52 0-471.04-294.912-471.04-352.256 0-59.392 235.52-354.304 471.04-354.304s471.04 294.912 471.04 352.256c0 59.392-235.52 354.304-471.04 354.304z m0-647.168c-206.848 0-411.648 245.76-411.648 294.912 0 49.152 204.8 294.912 411.648 294.912 206.848 0 411.648-245.76 411.648-294.912 0-49.152-206.848-294.912-411.648-294.912z m0 440.32c-81.92 0-147.456-65.536-147.456-147.456S430.08 342.016 512 342.016s147.456 65.536 147.456 147.456-65.536 147.456-147.456 147.456z m0-235.52c-49.152 0-88.064 38.912-88.064 88.064s38.912 88.064 88.064 88.064 88.064-38.912 88.064-88.064c0-47.104-38.912-88.064-88.064-88.064z" p-id="3740" fill="#8a8a8a"></path></svg>